<svg xmlns="http://www.w3.org/2000/svg" viewBox="0 0 500 500" width="500" height="500">
	<style>
		tspan { white-space:pre }
		.shp0 { fill: #ffffff } 
	</style>
	<g >
		<g >
			<g >
				<path class="shp0" d="M178 12.5L66.5 12.5C56 12.5 47 21 47 32L47 468.5C47 479 55.5 488 66.5 488L177.5 488C188 488 197 479.5 197 468.5L197 32C197 21 188.5 12.5 178 12.5Z" />
				<path class="shp0" d="M433.5 12.5L322 12.5C311.5 12.5 302.5 21 302.5 32L302.5 468.5C302.5 479 311 488 322 488L433 488C443.5 488 452.5 479.5 452.5 468.5L452.5 32C452.5 21 444 12.5 433.5 12.5Z" />
			</g>
		</g>
	</g>
</svg>