<svg xmlns="http://www.w3.org/2000/svg" viewBox="0 0 24 24" width="24" height="24">
	<style>
		tspan { white-space:pre }
		.shp0 { fill: #000000 } 
	</style>
	<g >
		<path class="shp0" d="M11.24 13.59L11.24 4C11.24 3.45 11.69 3 12.24 3C12.8 3 13.24 3.45 13.24 4L13.24 13.59L15.78 11.05C16.17 10.66 16.8 10.66 17.19 11.05C17.58 11.44 17.58 12.07 17.19 12.46L12.95 16.71C12.56 17.1 11.93 17.1 11.54 16.71L7.29 12.46C6.9 12.07 6.9 11.44 7.29 11.05C7.68 10.66 8.32 10.66 8.71 11.05L11.24 13.59ZM2 14C2 13.45 2.45 13 3 13C3.55 13 4 13.45 4 14C4 14.98 4 17.39 4 18C4 18.55 4.45 19 5 19L19 19C19.55 19 20 18.55 20 18L20 14C20 13.45 20.45 13 21 13C21.55 13 22 13.45 22 14L22 18C22 19.66 20.66 21 19 21L5 21C3.34 21 2 19.66 2 18C2 17.39 2 14.98 2 14Z" />
	</g>
</svg>