<svg version="1.2" baseProfile="tiny-ps" xmlns="http://www.w3.org/2000/svg" viewBox="0 0 90 67" width="67" height="50">
	<title>play-video-svg</title>
	<style>
		tspan { white-space:pre }
		.shp0 { fill: #000000 } 
	</style>
	<g >
		<path fill-rule="evenodd" class="shp0" d="M19 3L71 3C79.83 3 87 10.17 87 19L87 49C87 57.83 79.83 65 71 65L19 65C10.17 65 3 57.83 3 49L3 19C3 10.17 10.17 3 19 3ZM19 7C12.32 7 7 12.32 7 19L7 49C7 55.68 12.32 61 19 61L71 61C77.68 61 83 55.68 83 49L83 19C83 12.32 77.68 7 71 7L19 7ZM36.84 19C36.95 18.99 37.05 18.99 37.15 19C37.26 19.01 37.36 19.02 37.46 19.05C37.56 19.07 37.66 19.1 37.75 19.14C37.85 19.18 37.94 19.23 38.03 19.28L60.03 32.28C60.34 32.46 60.59 32.71 60.77 33.01C60.94 33.32 61.04 33.66 61.04 34.02C61.04 34.37 60.94 34.71 60.77 35.02C60.59 35.32 60.34 35.57 60.03 35.75L38.03 48.75C37.93 48.81 37.82 48.86 37.71 48.9C37.6 48.95 37.48 48.98 37.37 49C37.25 49.02 37.13 49.03 37.01 49.03C36.89 49.03 36.77 49.02 36.66 49C36.42 48.96 36.2 48.88 36 48.76C35.79 48.64 35.61 48.49 35.46 48.31C35.31 48.12 35.19 47.92 35.11 47.69C35.03 47.47 35 47.24 35 47L35 21C35 20.75 35.05 20.5 35.14 20.27C35.23 20.04 35.36 19.82 35.53 19.64C35.7 19.45 35.9 19.3 36.13 19.19C36.35 19.09 36.59 19.02 36.84 19ZM39 43.5L55.03 34L39 24.53L39 43.5Z" />
	</g>
</svg>