<svg xmlns="http://www.w3.org/2000/svg" viewBox="0 0 512 512" width="512" height="512">
	<style>
		tspan { white-space:pre }
		.shp0 { fill: #000000 } 
	</style>
	<g >
		<path class="shp0" d="M472.02 39.99C418.7 -13.32 332.25 -13.32 278.94 39.99L202.75 116.14C208.78 115.49 214.88 115.21 221 115.21C240.28 115.21 259.03 118.27 276.78 124.17L319.95 81.02C334.78 66.18 354.5 58.02 375.46 58.02C396.43 58.02 416.15 66.18 430.98 81.02C445.81 95.83 453.96 115.52 453.96 136.52C453.96 157.49 445.81 177.2 430.98 192.02L346.51 276.48C331.69 291.33 311.97 299.48 291 299.48C270 299.48 250.31 291.33 235.47 276.48C228.25 269.29 222.63 260.92 218.75 251.79C209.13 252.33 200.13 256.33 193.26 263.2L170.76 285.73C176.91 297.13 184.82 307.88 194.44 317.54C247.75 370.85 334.22 370.85 387.54 317.54L472.02 233.04C525.32 179.74 525.32 93.3 472.02 39.99Z" />
		<path class="shp0" d="M291.9 396.76C272.59 396.76 253.66 393.63 235.5 387.48L192.04 430.95C177.22 445.79 157.51 453.95 136.54 453.95C115.57 453.95 95.88 445.79 81.04 430.95C66.2 416.13 58.04 396.42 58.04 375.45C58.04 354.48 66.2 334.76 81.04 319.92L165.51 235.46C180.35 220.64 200.04 212.49 221 212.49C242 212.49 261.69 220.64 276.52 235.46C283.74 242.67 289.37 251.05 293.27 260.17C302.92 259.67 311.94 255.64 318.81 248.77L341.28 226.27C335.12 214.83 327.2 204.08 317.56 194.43C264.25 141.12 177.79 141.12 124.48 194.43L40.01 278.92C-13.33 332.24 -13.33 418.67 40.01 472.01C93.32 525.32 179.76 525.32 233.07 472.01L309.12 395.95C303.45 396.48 297.72 396.76 291.94 396.76L291.9 396.76L291.9 396.76Z" />
	</g>
</svg>